<svg width="803" height="166" viewBox="0 0 803 166" fill="none" xmlns="http://www.w3.org/2000/svg">
<path d="M21.7344 139.812V121.268H26.0115V164.293H21.7344V144.024H18.6552C14.3926 144.024 11.2794 143.848 9.31062 143.497C7.34666 143.146 5.58638 142.381 4.03947 141.201C2.48771 140.021 1.43056 138.578 0.858353 136.872C0.286145 135.166 3.05176e-05 132.812 3.05176e-05 129.809V121.268H4.18979V130.057C4.18979 133.66 4.91234 136.185 6.35256 137.638C7.79764 139.085 10.2029 139.812 13.5731 139.812L16.5942 139.782L17.8987 139.812H21.7344Z" fill="#FDF8F0"/>
<path d="M77.6901 121.268L97.6496 164.293H93.0283L86.2975 150.136H67.8606L61.1929 164.293H56.4212L76.6426 121.268H77.6901ZM77.1518 130.408L69.8149 145.983H84.45L77.1518 130.408Z" fill="#FDF8F0"/>
<path d="M167.979 129.253L164.603 131.856C162.741 129.419 160.506 127.571 157.897 126.314C155.288 125.056 152.422 124.427 149.299 124.427C145.885 124.427 142.724 125.251 139.814 126.899C136.904 128.546 134.65 130.759 133.049 133.538C131.449 136.317 130.649 139.441 130.649 142.912C130.649 148.157 132.438 152.535 136.017 156.045C139.596 159.554 144.11 161.309 149.561 161.309C155.555 161.309 160.569 158.95 164.603 154.231L167.979 156.805C165.845 159.535 163.183 161.646 159.992 163.137C156.801 164.629 153.237 165.375 149.299 165.375C141.812 165.375 135.906 162.869 131.58 157.858C127.953 153.627 126.139 148.518 126.139 142.532C126.139 136.234 128.336 130.935 132.729 126.635C137.123 122.336 142.627 120.186 149.241 120.186C153.237 120.186 156.845 120.981 160.065 122.57C163.284 124.159 165.922 126.387 167.979 129.253Z" fill="#FDF8F0"/>
<path d="M196.153 125.48V121.268H219.604V125.48H210.06V164.293H205.696V125.48H196.153Z" fill="#FDF8F0"/>
<path d="M249.548 121.268H253.825V139.315H275.618V121.268H279.895V164.293H275.618V143.526H253.825V164.293H249.548V121.268Z" fill="#FDF8F0"/>
<path d="M331.631 121.268L351.591 164.293H346.97L340.239 150.136H321.802L315.134 164.293H310.363L330.584 121.268H331.631ZM331.093 130.408L323.756 145.983H338.391L331.093 130.408Z" fill="#FDF8F0"/>
<path d="M406.325 164.293H402.048V144.316H399.628L384.236 164.293H378.946L394.337 144.316C390.749 144.296 387.936 143.833 385.9 142.927C383.863 142.015 382.297 140.675 381.201 138.9C380.105 137.121 379.557 135.064 379.557 132.719C379.557 129.906 380.352 127.542 381.943 125.616C383.533 123.696 385.599 122.438 388.14 121.853C389.827 121.463 393.047 121.268 397.8 121.268H406.325V164.293ZM394.497 125.48C391.564 125.48 389.469 125.733 388.203 126.24C386.942 126.747 385.924 127.591 385.143 128.77C384.367 129.95 383.979 131.261 383.979 132.704C383.979 134.186 384.362 135.527 385.129 136.726C385.9 137.925 386.966 138.798 388.334 139.344C389.706 139.89 391.821 140.163 394.677 140.163L402.048 140.104V125.48H394.497Z" fill="#FDF8F0"/>
<path d="M485.246 160.227H503.548V121.268H507.825V160.227H526.446V121.268H530.723V164.293H480.969V121.268H485.246V160.227Z" fill="#FDF8F0"/>
<path d="M564.915 121.268H569.279V137.413L586.388 121.268H592.134L571.578 140.572L593.734 164.293H588.036L569.279 144.253V164.293H564.915V121.268Z" fill="#FDF8F0"/>
<path d="M644.336 120.186C650.82 120.186 656.241 122.36 660.61 126.708C664.98 131.057 667.162 136.409 667.162 142.766C667.162 149.064 664.984 154.407 660.625 158.794C656.265 163.181 650.955 165.375 644.685 165.375C638.338 165.375 632.979 163.191 628.615 158.823C624.246 154.455 622.064 149.171 622.064 142.971C622.064 138.837 623.058 135.005 625.046 131.476C627.039 127.947 629.75 125.183 633.183 123.184C636.621 121.185 640.336 120.186 644.336 120.186ZM644.525 124.369C641.359 124.369 638.357 125.197 635.52 126.855C632.683 128.517 630.467 130.75 628.877 133.562C627.281 136.37 626.486 139.5 626.486 142.956C626.486 148.07 628.251 152.389 631.777 155.908C635.302 159.433 639.55 161.192 644.525 161.192C647.847 161.192 650.922 160.383 653.749 158.765C656.576 157.141 658.782 154.928 660.363 152.12C661.949 149.308 662.739 146.188 662.739 142.751C662.739 139.334 661.949 136.248 660.363 133.484C658.782 130.725 656.552 128.517 653.676 126.855C650.8 125.197 647.75 124.369 644.525 124.369Z" fill="#FDF8F0"/>
<path d="M734.232 164.293H729.577L715.393 131.052L700.976 164.293H696.32L714.942 121.268H715.873L734.232 164.293Z" fill="#FDF8F0"/>
<path d="M782.739 121.268L802.699 164.293H798.077L791.347 150.136H772.91L766.242 164.293H761.47L781.692 121.268H782.739ZM782.201 130.408L774.864 145.983H789.499L782.201 130.408Z" fill="#FDF8F0"/>
<path d="M323.771 1.02942C336.375 1.02942 346.915 5.41106 355.409 14.1744C363.903 22.9376 368.146 33.7247 368.146 46.5357C368.146 59.2287 363.913 69.9961 355.437 78.838C346.962 87.6799 336.639 92.1008 324.449 92.1008C312.109 92.1008 301.691 87.6996 293.207 78.8969C284.713 70.0944 280.47 59.4448 280.47 46.9483C280.47 38.6173 282.403 30.8953 286.268 23.7825C290.143 16.6697 295.413 11.0994 302.087 7.07137C308.771 3.0434 315.993 1.02942 323.771 1.02942ZM324.138 9.45867C317.982 9.45867 312.146 11.1288 306.631 14.4691C301.116 17.8192 296.808 22.3187 293.716 27.9873C290.614 33.6461 289.068 39.9534 289.068 46.9188C289.068 57.2245 292.5 65.9289 299.353 73.022C306.207 80.125 314.466 83.6716 324.138 83.6716C330.596 83.6716 336.573 82.0408 342.069 78.7791C347.565 75.5076 351.855 71.0473 354.928 65.3885C358.011 59.7199 359.548 53.4323 359.548 46.5062C359.548 39.6194 358.011 33.4005 354.928 27.8302C351.855 22.2696 347.518 17.8192 341.928 14.4691C336.337 11.1288 330.407 9.45867 324.138 9.45867Z" fill="#FDF8F0"/>
<path d="M141.29 2.7589C146.28 2.7589 154.133 1.37823 156.878 0V18.0491H153.636V14.7908C153.636 11.4077 151.143 8.77365 147.775 8.6488H125.58V80.8478C125.955 84.4831 128.573 87.4917 132.438 87.4917H135.056V90.7499H106.252V87.4917H108.872C112.362 87.4917 115.355 84.6079 115.479 80.9726V8.6488H93.4089C90.0435 8.77365 87.5498 11.4077 87.5498 14.7908V18.0491H84.1819V0C87.1748 1.37823 94.7824 2.7589 99.8939 2.7589H141.29Z" fill="#FDF8F0"/>
<path d="M261.236 80.5981C262.11 84.7328 265.351 87.3668 269.216 87.3668H272.209V90.6251H243.656V87.4917H246.649C248.643 87.4917 250.389 85.6116 250.389 83.6067V83.3545L245.275 25.5719L221.211 79.2199C220.587 80.5981 219.964 82.1012 219.465 83.6067C218.469 86.2383 217.47 89.4966 217.095 92.3803H214.477L184.551 27.3246L179.564 83.3545V83.6067C179.564 85.6116 181.31 87.4917 183.304 87.4917H186.173V90.6251H160.487V87.3668H163.479C167.344 87.3668 170.588 84.7328 171.46 80.5981L180.687 1.12854H183.304L216.598 73.5772L249.267 1.12854H251.885L261.236 80.5981Z" fill="#FDF8F0"/>
<path d="M460.302 53.424L458.683 74.1048C452.074 85.0106 440.728 93.0327 423.518 93.0327C397.459 93.0327 378.881 74.8563 378.881 47.282C378.881 20.0822 396.712 1.78094 424.144 1.78094C436.488 1.78094 446.463 5.54108 454.068 10.5546L456.688 29.4826H453.695C450.079 14.9414 438.607 7.54599 424.268 7.54599C403.321 7.54599 390.227 23.3405 390.227 47.1571C390.227 70.9713 404.193 86.264 423.645 87.2652C440.353 87.2652 454.443 78.6164 457.436 53.424H460.302Z" fill="#FDF8F0"/>
<path d="M532.119 22.212C548.951 22.212 557.555 31.6123 557.555 46.7802C557.555 61.571 545.71 71.0962 533.241 71.0962C529.25 71.0962 525.011 70.2198 520.897 67.8379V64.8293C521.521 64.9541 522.144 65.0814 522.892 65.2063C524.014 65.5808 525.634 65.5808 527.132 65.5808C533.366 65.5808 542.717 63.8281 546.457 52.67C546.832 51.2918 547.207 49.0372 547.207 46.6553V45.6516C546.832 34.9979 541.721 27.8522 531.87 27.8522H518.903V81.3753C519.027 85.0106 522.02 88.0192 525.634 88.0192H528.254V91.2775H499.575V88.0192H502.193C505.809 88.0192 508.802 85.0106 508.926 81.3753V27.8522H496.083C486.232 27.8522 481.121 34.9979 480.746 45.6516V46.6553C480.746 49.0372 481.121 51.2918 481.496 52.67C485.236 63.8281 494.588 65.5808 500.822 65.5808C502.317 65.5808 503.939 65.5808 505.061 65.2063C505.809 65.0814 506.432 64.9541 507.056 64.8293V67.8379C502.943 70.2198 498.703 71.0962 494.712 71.0962C482.243 71.0962 470.396 61.571 470.396 46.7802C470.396 31.6123 479 22.212 495.834 22.212H508.926V13.4383C508.802 9.80305 505.809 6.66961 502.193 6.66961H499.575V3.41132H528.254V6.66961H525.634C522.02 6.66961 519.027 9.80305 518.903 13.4383V22.212H532.119Z" fill="#FDF8F0"/>
<path d="M620.392 91.5272H568.023V88.2689H570.641C574.506 88.2689 577.124 85.3852 577.499 81.5002V13.0614C577.124 9.67822 574.257 7.04416 570.765 7.04416H568.148V3.78587H604.805C609.794 3.78587 617.648 2.40764 620.392 1.02942V19.0785H617.151V15.8203C617.151 12.4347 614.658 9.92791 611.29 9.55337H587.598V45.2746H607.05C609.919 45.1498 612.037 43.02 612.037 40.1363V37.3798H615.281V58.6873H612.037V55.806C612.037 53.1719 609.794 50.9173 607.301 50.79H587.724V85.5125H604.057C616.277 85.5125 621.388 78.8686 625.005 69.4683H628.373L620.392 91.5272Z" fill="#FDF8F0"/>
<path d="M673.132 3.53619C689.589 3.53619 699.315 12.8117 699.315 28.2292C699.191 43.6467 687.346 50.9173 674.378 51.4167C670.387 51.4167 667.645 50.4155 663.281 48.0336V46.2783C663.654 46.4032 664.153 46.528 664.652 46.6553C665.524 46.905 666.647 47.0299 668.268 47.0299C674.378 47.0299 683.854 45.1498 687.594 33.9943V34.1191C687.969 32.4912 688.218 30.4838 688.218 28.1044V27.1007C687.845 16.1948 682.607 9.30124 673.005 9.30124H659.913V81.3754C660.288 85.0107 662.906 88.0192 666.771 88.0192H669.389V91.2775H640.587V88.0192H643.205C647.07 88.0192 649.688 85.0107 650.063 81.3754V12.9365C649.688 9.55339 646.822 6.91933 643.329 6.91933H640.712V3.53619H673.132Z" fill="#FDF8F0"/>
<path d="M774.014 81.1565V81.036C775.163 83.5866 776.631 85.3941 778.429 86.4585C780.227 87.5329 781.945 88.0651 783.584 88.0651H785.671V91.2684H756.583V88.0651H758.671C759.73 88.0651 760.679 87.7338 761.498 87.0811C762.307 86.4183 762.717 85.4342 762.717 84.1188C762.717 83.3757 762.597 82.6326 762.357 81.8996L754.865 62.0274H724.059L716.198 82.0201V81.8996C715.958 82.8033 715.828 83.5464 715.828 84.1188C715.828 85.4342 716.257 86.4384 717.117 87.1413C717.976 87.8342 718.944 88.1856 720.003 88.1856H722.091V91.3989H695.95V88.1856H698.037C699.666 88.1856 701.384 87.6534 703.192 86.579C704.99 85.5146 706.458 83.7473 707.607 81.277H707.487L734.737 16.4989C735.556 14.6914 736.286 12.9643 736.945 11.3174C737.514 9.92167 738.024 8.47568 738.483 6.99957C738.923 5.51342 739.152 4.32852 739.152 3.41473H741.849L774.014 81.1565ZM752.777 56.3539L739.772 21.5598L726.147 56.3539H752.777Z" fill="#FDF8F0"/>
<path d="M78.0645 80.5041V80.3836C79.2132 82.9342 80.6816 84.7417 82.4796 85.8061C84.2777 86.8805 85.9958 87.4127 87.634 87.4127H89.7217V90.616H60.6336V87.4127H62.7213C63.7801 87.4127 64.7291 87.0814 65.5482 86.4287C66.3573 85.7659 66.7669 84.7818 66.7669 83.4664C66.7669 82.7233 66.647 81.9802 66.4073 81.2472L58.9155 61.3749H28.1092L20.2478 81.3677V81.2472C20.0081 82.1509 19.8782 82.894 19.8782 83.4664C19.8782 84.7818 20.3078 85.786 21.1668 86.4889C22.0259 87.1818 22.9948 87.5332 24.0537 87.5332H26.1414V90.7465H0V87.5332H2.08771C3.71593 87.5332 5.43405 87.001 7.24206 85.9266C9.0401 84.8622 10.5085 83.0949 11.6572 80.6246H11.5374L38.7875 15.8465C39.6066 14.039 40.3358 12.3119 40.9951 10.665C41.5645 9.26926 42.0739 7.82328 42.5334 6.34717C42.9729 4.86102 43.2027 3.67611 43.2027 2.76233H45.8997L78.0645 80.5041ZM56.8278 55.7015L43.822 20.9074L30.1969 55.7015H56.8278Z" fill="#FDF8F0"/>
</svg>
