<svg width="1266" height="225" viewBox="0 0 1266 225" fill="none" xmlns="http://www.w3.org/2000/svg">
<g filter="url(#filter0_d_1_9)">
<path d="M282.539 184.499C282.539 194.992 274.033 203.499 263.539 203.499H119C108.507 203.499 100 194.992 100 184.499V39C100 28.5066 108.507 20 119 20H263.539C274.033 20 282.539 28.5066 282.539 39V184.499Z" fill="#073769"/>
<path d="M268.031 145.285C268.748 146.17 267.734 147.211 266.839 146.507V146.507C264.97 145.018 263.104 143.526 261.259 142.014C259.402 140.513 257.575 138.982 255.737 137.462L250.265 132.858L244.839 128.207C243.03 126.657 241.25 125.078 239.454 123.515C237.656 121.954 235.882 120.368 234.106 118.785C232.332 117.199 230.542 115.629 228.787 114.024L223.501 109.231L218.254 104.397C216.51 102.78 214.751 101.179 213.027 99.5421L207.832 94.6545C204.366 91.3992 200.959 88.0838 197.519 84.8013L190.146 77.6081C189.111 76.5983 189.825 74.8417 191.271 74.8417V74.8417C192.717 74.8417 193.432 76.5973 192.398 77.6074L185.026 84.8078L179.878 89.7427C178.158 91.3838 176.455 93.0424 174.716 94.6637L169.521 99.5506C167.795 101.186 166.043 102.794 164.296 104.408L159.05 109.243L153.763 114.035C152.007 115.639 150.222 117.214 148.445 118.797C146.666 120.378 144.896 121.967 143.096 123.526L137.711 128.219L132.284 132.868L126.811 137.47C124.971 138.989 123.144 140.52 121.286 142.02C119.44 143.531 117.573 145.022 115.704 146.51V146.51C114.803 147.218 113.784 146.172 114.505 145.281V145.281C116.021 143.431 117.539 141.584 119.078 139.757C120.605 137.918 122.163 136.111 123.709 134.292L128.391 128.879L133.119 123.513L137.889 118.191C139.475 116.412 141.09 114.663 142.696 112.905C144.305 111.15 145.904 109.386 147.534 107.652L152.401 102.429L157.311 97.25C158.949 95.5249 160.582 93.7948 162.242 92.0921L167.202 86.964C168.848 85.2471 170.53 83.5673 172.195 81.8702L177.202 76.7901L187.31 66.7264V66.7264C189.499 64.5466 193.042 64.5453 195.229 66.7264V66.7264L205.331 76.7966C208.661 80.1908 212.024 83.552 215.328 86.9733L220.289 92.1005C221.95 93.8024 223.577 95.5388 225.218 97.2607L230.126 102.442L234.995 107.663C236.625 109.396 238.221 111.165 239.832 112.917C241.44 114.672 243.051 116.425 244.638 118.203C246.228 119.978 247.833 121.736 249.409 123.525L254.138 128.889L258.822 134.3C260.369 136.118 261.927 137.926 263.455 139.763C264.995 141.589 266.514 143.436 268.031 145.285V145.285Z" fill="url(#paint0_linear_1_9)"/>
<path d="M237.385 128.274C237.563 127.972 238.025 128.11 238.012 128.459V128.459C237.976 128.894 237.999 129.424 237.885 130.053C237.785 130.686 237.658 131.427 237.486 132.266C237.259 133.063 237.022 133.974 236.671 134.935C236.292 135.879 235.886 136.931 235.296 137.969C234.768 139.059 234.028 140.091 233.267 141.226C232.857 141.761 232.417 142.299 231.964 142.854C231.508 143.406 230.994 143.913 230.486 144.466C228.392 146.584 225.841 148.598 222.939 150.324C220.039 152.055 216.812 153.537 213.392 154.713C209.97 155.882 206.362 156.8 202.66 157.408C200.809 157.721 198.936 157.965 197.041 158.129C196.094 158.212 195.141 158.286 194.181 158.33L192.725 158.38L191.981 158.394L191.348 158.397C190.261 158.406 189.336 158.37 188.358 158.332C187.398 158.288 186.445 158.218 185.498 158.134C183.603 157.972 181.729 157.727 179.878 157.418C176.175 156.813 172.567 155.892 169.144 154.726C165.723 153.552 162.494 152.07 159.593 150.339C156.689 148.614 154.139 146.596 152.043 144.478C151.536 143.925 151.022 143.417 150.566 142.865C150.114 142.307 149.672 141.771 149.263 141.235C148.501 140.1 147.763 139.065 147.234 137.976C146.645 136.936 146.238 135.884 145.86 134.939C145.511 133.977 145.274 133.067 145.047 132.269C144.882 131.443 144.758 130.711 144.659 130.08C144.546 129.454 144.561 128.894 144.526 128.46V128.46C144.508 128.096 144.97 127.958 145.156 128.273V128.273C145.262 128.457 145.381 128.662 145.512 128.889C145.64 129.114 145.77 129.362 145.955 129.611C146.293 130.109 146.682 130.682 147.117 131.324C147.622 131.918 148.101 132.6 148.702 133.275C149.344 133.925 149.936 134.67 150.728 135.334C152.208 136.73 154.01 138.108 156.134 139.327C160.345 141.808 165.765 143.728 171.85 144.998C174.895 145.624 178.093 146.122 181.372 146.464C183.01 146.647 184.67 146.771 186.33 146.876C187.16 146.927 187.99 146.956 188.816 146.993C189.625 147.02 190.489 147.036 191.191 147.028L191.9 147.031L192.498 147.025L193.723 146.995C194.549 146.959 195.379 146.934 196.21 146.88C197.87 146.778 199.53 146.653 201.168 146.474C204.449 146.135 207.646 145.634 210.693 145.011C216.78 143.743 222.203 141.823 226.415 139.339C226.929 139.018 227.467 138.728 227.946 138.395C228.421 138.058 228.888 137.723 229.362 137.408C230.237 136.717 231.093 136.05 231.821 135.341C232.611 134.676 233.204 133.93 233.845 133.279C234.169 132.955 234.402 132.594 234.67 132.271C234.925 131.94 235.186 131.629 235.428 131.327C235.859 130.694 236.245 130.129 236.58 129.638C236.763 129.394 236.896 129.134 237.026 128.903C237.158 128.672 237.278 128.462 237.385 128.274V128.274Z" fill="url(#paint1_linear_1_9)"/>
</g>
<path d="M385.734 168.812V150.268H390.011V193.293H385.734V173.024H382.655C378.393 173.024 375.279 172.848 373.311 172.497C371.347 172.146 369.586 171.381 368.039 170.201C366.488 169.021 365.431 167.578 364.858 165.872C364.286 164.166 364 161.812 364 158.809V150.268H368.19V159.057C368.19 162.66 368.912 165.185 370.353 166.638C371.798 168.085 374.203 168.812 377.573 168.812L380.594 168.782L381.899 168.812H385.734Z" fill="#FDF8F0"/>
<path d="M441.69 150.268L461.65 193.293H457.028L450.298 179.136H431.861L425.193 193.293H420.421L440.643 150.268H441.69ZM441.152 159.408L433.815 174.983H448.45L441.152 159.408Z" fill="#FDF8F0"/>
<path d="M531.979 158.253L528.603 160.856C526.741 158.419 524.506 156.571 521.897 155.314C519.288 154.056 516.422 153.427 513.299 153.427C509.885 153.427 506.724 154.251 503.814 155.899C500.904 157.546 498.65 159.759 497.049 162.538C495.449 165.317 494.649 168.441 494.649 171.912C494.649 177.157 496.438 181.535 500.017 185.045C503.596 188.554 508.11 190.309 513.561 190.309C519.555 190.309 524.569 187.95 528.603 183.231L531.979 185.805C529.845 188.535 527.183 190.646 523.992 192.137C520.801 193.629 517.237 194.375 513.299 194.375C505.812 194.375 499.906 191.869 495.58 186.858C491.953 182.627 490.139 177.518 490.139 171.532C490.139 165.234 492.336 159.935 496.729 155.635C501.123 151.336 506.627 149.186 513.241 149.186C517.237 149.186 520.845 149.981 524.065 151.57C527.284 153.159 529.922 155.387 531.979 158.253Z" fill="#FDF8F0"/>
<path d="M560.153 154.48V150.268H583.604V154.48H574.06V193.293H569.696V154.48H560.153Z" fill="#FDF8F0"/>
<path d="M613.548 150.268H617.825V168.315H639.618V150.268H643.895V193.293H639.618V172.526H617.825V193.293H613.548V150.268Z" fill="#FDF8F0"/>
<path d="M695.631 150.268L715.591 193.293H710.97L704.239 179.136H685.802L679.134 193.293H674.363L694.584 150.268H695.631ZM695.093 159.408L687.756 174.983H702.391L695.093 159.408Z" fill="#FDF8F0"/>
<path d="M770.325 193.293H766.048V173.316H763.628L748.236 193.293H742.946L758.337 173.316C754.749 173.296 751.936 172.833 749.9 171.927C747.863 171.015 746.297 169.675 745.201 167.9C744.105 166.121 743.557 164.064 743.557 161.719C743.557 158.906 744.352 156.542 745.943 154.616C747.533 152.696 749.599 151.438 752.14 150.853C753.827 150.463 757.047 150.268 761.8 150.268H770.325V193.293ZM758.497 154.48C755.564 154.48 753.469 154.733 752.203 155.24C750.942 155.747 749.924 156.591 749.143 157.77C748.367 158.95 747.979 160.261 747.979 161.704C747.979 163.186 748.362 164.527 749.129 165.726C749.9 166.925 750.966 167.798 752.334 168.344C753.706 168.89 755.821 169.163 758.677 169.163L766.048 169.104V154.48H758.497Z" fill="#FDF8F0"/>
<path d="M849.246 189.227H867.548V150.268H871.825V189.227H890.446V150.268H894.723V193.293H844.969V150.268H849.246V189.227Z" fill="#FDF8F0"/>
<path d="M928.915 150.268H933.279V166.413L950.388 150.268H956.134L935.578 169.572L957.734 193.293H952.036L933.279 173.253V193.293H928.915V150.268Z" fill="#FDF8F0"/>
<path d="M1008.34 149.186C1014.82 149.186 1020.24 151.36 1024.61 155.708C1028.98 160.057 1031.16 165.409 1031.16 171.766C1031.16 178.064 1028.98 183.407 1024.62 187.794C1020.27 192.181 1014.96 194.375 1008.69 194.375C1002.34 194.375 996.979 192.191 992.615 187.823C988.246 183.455 986.064 178.171 986.064 171.971C986.064 167.837 987.058 164.005 989.046 160.476C991.039 156.947 993.75 154.183 997.183 152.184C1000.62 150.185 1004.34 149.186 1008.34 149.186ZM1008.53 153.369C1005.36 153.369 1002.36 154.197 999.52 155.855C996.683 157.517 994.467 159.75 992.877 162.562C991.281 165.37 990.486 168.5 990.486 171.956C990.486 177.07 992.251 181.389 995.777 184.908C999.302 188.433 1003.55 190.192 1008.53 190.192C1011.85 190.192 1014.92 189.383 1017.75 187.765C1020.58 186.141 1022.78 183.928 1024.36 181.12C1025.95 178.308 1026.74 175.188 1026.74 171.751C1026.74 168.334 1025.95 165.248 1024.36 162.484C1022.78 159.725 1020.55 157.517 1017.68 155.855C1014.8 154.197 1011.75 153.369 1008.53 153.369Z" fill="#FDF8F0"/>
<path d="M1098.23 193.293H1093.58L1079.39 160.052L1064.98 193.293H1060.32L1078.94 150.268H1079.87L1098.23 193.293Z" fill="#FDF8F0"/>
<path d="M1146.74 150.268L1166.7 193.293H1162.08L1155.35 179.136H1136.91L1130.24 193.293H1125.47L1145.69 150.268H1146.74ZM1146.2 159.408L1138.86 174.983H1153.5L1146.2 159.408Z" fill="#FDF8F0"/>
<path d="M687.771 30.0294C700.375 30.0294 710.915 34.4111 719.409 43.1744C727.903 51.9376 732.146 62.7247 732.146 75.5357C732.146 88.2287 727.913 98.9961 719.437 107.838C710.962 116.68 700.639 121.101 688.449 121.101C676.109 121.101 665.691 116.7 657.207 107.897C648.713 99.0944 644.47 88.4448 644.47 75.9483C644.47 67.6173 646.403 59.8953 650.268 52.7825C654.143 45.6697 659.413 40.0994 666.087 36.0714C672.771 32.0434 679.993 30.0294 687.771 30.0294ZM688.138 38.4587C681.982 38.4587 676.146 40.1288 670.631 43.4691C665.116 46.8192 660.808 51.3187 657.716 56.9873C654.614 62.6461 653.068 68.9534 653.068 75.9188C653.068 86.2245 656.5 94.9289 663.353 102.022C670.207 109.125 678.466 112.672 688.138 112.672C694.596 112.672 700.573 111.041 706.069 107.779C711.565 104.508 715.855 100.047 718.928 94.3885C722.011 88.7199 723.548 82.4323 723.548 75.5062C723.548 68.6194 722.011 62.4005 718.928 56.8302C715.855 51.2696 711.518 46.8192 705.928 43.4691C700.337 40.1288 694.407 38.4587 688.138 38.4587Z" fill="#FDF8F0"/>
<path d="M505.29 31.7589C510.28 31.7589 518.133 30.3782 520.878 29V47.0491H517.636V43.7908C517.636 40.4077 515.143 37.7736 511.775 37.6488H489.58V109.848C489.955 113.483 492.573 116.492 496.438 116.492H499.056V119.75H470.252V116.492H472.872C476.362 116.492 479.355 113.608 479.479 109.973V37.6488H457.409C454.043 37.7736 451.55 40.4077 451.55 43.7908V47.0491H448.182V29C451.175 30.3782 458.782 31.7589 463.894 31.7589H505.29Z" fill="#FDF8F0"/>
<path d="M625.236 109.598C626.11 113.733 629.351 116.367 633.216 116.367H636.209V119.625H607.656V116.492H610.649C612.643 116.492 614.389 114.612 614.389 112.607V112.355L609.275 54.5719L585.211 108.22C584.587 109.598 583.964 111.101 583.465 112.607C582.469 115.238 581.47 118.497 581.095 121.38H578.477L548.551 56.3246L543.564 112.355V112.607C543.564 114.612 545.31 116.492 547.304 116.492H550.173V119.625H524.487V116.367H527.479C531.344 116.367 534.588 113.733 535.46 109.598L544.687 30.1285H547.304L580.598 102.577L613.267 30.1285H615.885L625.236 109.598Z" fill="#FDF8F0"/>
<path d="M824.302 82.424L822.683 103.105C816.074 114.011 804.728 122.033 787.518 122.033C761.459 122.033 742.881 103.856 742.881 76.282C742.881 49.0822 760.712 30.7809 788.144 30.7809C800.488 30.7809 810.463 34.5411 818.068 39.5546L820.688 58.4826H817.695C814.079 43.9414 802.607 36.546 788.268 36.546C767.321 36.546 754.227 52.3405 754.227 76.1571C754.227 99.9713 768.193 115.264 787.645 116.265C804.353 116.265 818.443 107.616 821.436 82.424H824.302Z" fill="#FDF8F0"/>
<path d="M896.119 51.212C912.951 51.212 921.555 60.6123 921.555 75.7802C921.555 90.571 909.71 100.096 897.241 100.096C893.25 100.096 889.011 99.2198 884.897 96.8379V93.8293C885.521 93.9541 886.144 94.0814 886.892 94.2063C888.014 94.5808 889.634 94.5808 891.132 94.5808C897.366 94.5808 906.717 92.8281 910.457 81.67C910.832 80.2918 911.207 78.0372 911.207 75.6553V74.6516C910.832 63.9979 905.721 56.8522 895.87 56.8522H882.903V110.375C883.027 114.011 886.02 117.019 889.634 117.019H892.254V120.278H863.575V117.019H866.193C869.809 117.019 872.802 114.011 872.926 110.375V56.8522H860.083C850.232 56.8522 845.121 63.9979 844.746 74.6516V75.6553C844.746 78.0372 845.121 80.2918 845.496 81.67C849.236 92.8281 858.588 94.5808 864.822 94.5808C866.317 94.5808 867.939 94.5808 869.061 94.2063C869.809 94.0814 870.432 93.9541 871.056 93.8293V96.8379C866.943 99.2198 862.703 100.096 858.712 100.096C846.243 100.096 834.396 90.571 834.396 75.7802C834.396 60.6123 843 51.212 859.834 51.212H872.926V42.4383C872.802 38.8031 869.809 35.6696 866.193 35.6696H863.575V32.4113H892.254V35.6696H889.634C886.02 35.6696 883.027 38.8031 882.903 42.4383V51.212H896.119Z" fill="#FDF8F0"/>
<path d="M984.392 120.527H932.023V117.269H934.641C938.506 117.269 941.124 114.385 941.499 110.5V42.0614C941.124 38.6782 938.257 36.0442 934.765 36.0442H932.148V32.7859H968.805C973.794 32.7859 981.648 31.4076 984.392 30.0294V48.0785H981.151V44.8203C981.151 41.4347 978.658 38.9279 975.29 38.5534H951.598V74.2746H971.05C973.919 74.1498 976.037 72.02 976.037 69.1363V66.3798H979.281V87.6873H976.037V84.806C976.037 82.1719 973.794 79.9173 971.301 79.79H951.724V114.512H968.057C980.277 114.512 985.388 107.869 989.005 98.4683H992.373L984.392 120.527Z" fill="#FDF8F0"/>
<path d="M1037.13 32.5362C1053.59 32.5362 1063.31 41.8117 1063.31 57.2292C1063.19 72.6467 1051.35 79.9173 1038.38 80.4167C1034.39 80.4167 1031.64 79.4155 1027.28 77.0336V75.2783C1027.65 75.4032 1028.15 75.528 1028.65 75.6553C1029.52 75.905 1030.65 76.0299 1032.27 76.0299C1038.38 76.0299 1047.85 74.1498 1051.59 62.9943V63.1191C1051.97 61.4912 1052.22 59.4838 1052.22 57.1044V56.1007C1051.84 45.1948 1046.61 38.3012 1037 38.3012H1023.91V110.375C1024.29 114.011 1026.91 117.019 1030.77 117.019H1033.39V120.278H1004.59V117.019H1007.21C1011.07 117.019 1013.69 114.011 1014.06 110.375V41.9365C1013.69 38.5534 1010.82 35.9193 1007.33 35.9193H1004.71V32.5362H1037.13Z" fill="#FDF8F0"/>
<path d="M1138.01 110.157V110.036C1139.16 112.587 1140.63 114.394 1142.43 115.458C1144.23 116.533 1145.95 117.065 1147.58 117.065H1149.67V120.268H1120.58V117.065H1122.67C1123.73 117.065 1124.68 116.734 1125.5 116.081C1126.31 115.418 1126.72 114.434 1126.72 113.119C1126.72 112.376 1126.6 111.633 1126.36 110.9L1118.87 91.0274H1088.06L1080.2 111.02V110.9C1079.96 111.803 1079.83 112.546 1079.83 113.119C1079.83 114.434 1080.26 115.438 1081.12 116.141C1081.98 116.834 1082.94 117.186 1084 117.186H1086.09V120.399H1059.95V117.186H1062.04C1063.67 117.186 1065.38 116.653 1067.19 115.579C1068.99 114.515 1070.46 112.747 1071.61 110.277H1071.49L1098.74 45.4989C1099.56 43.6914 1100.29 41.9643 1100.94 40.3174C1101.51 38.9217 1102.02 37.4757 1102.48 35.9996C1102.92 34.5134 1103.15 33.3285 1103.15 32.4147H1105.85L1138.01 110.157ZM1116.78 85.3539L1103.77 50.5598L1090.15 85.3539H1116.78Z" fill="#FDF8F0"/>
<path d="M442.064 109.504V109.384C443.213 111.934 444.682 113.742 446.48 114.806C448.278 115.881 449.996 116.413 451.634 116.413H453.722V119.616H424.634V116.413H426.721C427.78 116.413 428.729 116.081 429.548 115.429C430.357 114.766 430.767 113.782 430.767 112.466C430.767 111.723 430.647 110.98 430.407 110.247L422.915 90.3749H392.109L384.248 110.368V110.247C384.008 111.151 383.878 111.894 383.878 112.466C383.878 113.782 384.308 114.786 385.167 115.489C386.026 116.182 386.995 116.533 388.054 116.533H390.141V119.747H364V116.533H366.088C367.716 116.533 369.434 116.001 371.242 114.927C373.04 113.862 374.508 112.095 375.657 109.625H375.537L402.788 44.8465C403.607 43.039 404.336 41.3119 404.995 39.665C405.564 38.2693 406.074 36.8233 406.533 35.3472C406.973 33.861 407.203 32.6761 407.203 31.7623H409.9L442.064 109.504ZM420.828 84.7015L407.822 49.9074L394.197 84.7015H420.828Z" fill="#FDF8F0"/>
<defs>
<filter id="filter0_d_1_9" x="80" y="0" width="222.539" height="223.499" filterUnits="userSpaceOnUse" color-interpolation-filters="sRGB">
<feFlood flood-opacity="0" result="BackgroundImageFix"/>
<feColorMatrix in="SourceAlpha" type="matrix" values="0 0 0 0 0 0 0 0 0 0 0 0 0 0 0 0 0 0 127 0" result="hardAlpha"/>
<feOffset/>
<feGaussianBlur stdDeviation="10"/>
<feComposite in2="hardAlpha" operator="out"/>
<feColorMatrix type="matrix" values="0 0 0 0 1 0 0 0 0 1 0 0 0 0 1 0 0 0 0.26 0"/>
<feBlend mode="normal" in2="BackgroundImageFix" result="effect1_dropShadow_1_9"/>
<feBlend mode="normal" in="SourceGraphic" in2="effect1_dropShadow_1_9" result="shape"/>
</filter>
<linearGradient id="paint0_linear_1_9" x1="110.027" y1="106.842" x2="272.512" y2="106.842" gradientUnits="userSpaceOnUse">
<stop offset="0.107" stop-color="#E3BC5D"/>
<stop offset="0.163861" stop-color="#DBB557"/>
<stop offset="0.253315" stop-color="#C4A046"/>
<stop offset="0.363626" stop-color="#A07F2A"/>
<stop offset="0.3737" stop-color="#9C7C27"/>
<stop offset="0.456181" stop-color="#A98B39"/>
<stop offset="0.620948" stop-color="#C9B368"/>
<stop offset="0.7321" stop-color="#E1D08B"/>
<stop offset="0.865515" stop-color="#C2A65B"/>
<stop offset="1" stop-color="#A17926"/>
</linearGradient>
<linearGradient id="paint1_linear_1_9" x1="144.478" y1="142.762" x2="238.061" y2="142.762" gradientUnits="userSpaceOnUse">
<stop offset="0.107" stop-color="#E3BC5D"/>
<stop offset="0.163861" stop-color="#DBB557"/>
<stop offset="0.253315" stop-color="#C4A046"/>
<stop offset="0.363626" stop-color="#A07F2A"/>
<stop offset="0.3737" stop-color="#9C7C27"/>
<stop offset="0.456181" stop-color="#A98B39"/>
<stop offset="0.620948" stop-color="#C9B368"/>
<stop offset="0.7321" stop-color="#E1D08B"/>
<stop offset="0.865515" stop-color="#C2A65B"/>
<stop offset="1" stop-color="#A17926"/>
</linearGradient>
</defs>
</svg>
