<svg width="183" height="184" viewBox="0 0 183 184" fill="none" xmlns="http://www.w3.org/2000/svg">
<path d="M182.539 164.499C182.539 174.992 174.033 183.499 163.539 183.499H19C8.50661 183.499 0 174.992 0 164.499V19C0 8.50657 8.50659 0 19 0H163.539C174.033 0 182.539 8.50659 182.539 19V164.499Z" fill="#073769"/>
<path d="M168.031 125.285C168.748 126.17 167.734 127.211 166.839 126.507V126.507C164.97 125.018 163.104 123.526 161.259 122.014C159.402 120.513 157.575 118.982 155.737 117.462L150.265 112.858L144.839 108.207C143.03 106.657 141.25 105.078 139.454 103.515C137.656 101.954 135.882 100.368 134.106 98.7851C132.332 97.1994 130.542 95.6293 128.787 94.0242L123.501 89.2306L118.254 84.3969C116.51 82.7804 114.751 81.1786 113.027 79.5421L107.832 74.6545C104.366 71.3992 100.959 68.0838 97.5192 64.8014L90.1456 57.6081C89.1105 56.5983 89.8254 54.8417 91.2715 54.8417V54.8417C92.717 54.8417 93.4321 56.5973 92.398 57.6074L85.0264 64.8078L79.8779 69.7427C78.158 71.3838 76.4551 73.0424 74.7159 74.6637L69.5205 79.5506C67.7952 81.1861 66.0432 82.7944 64.296 84.4076L59.0505 89.243L53.7628 94.0352C52.0068 95.6394 50.2216 97.2136 48.4451 98.7968C46.6663 100.378 44.8956 101.967 43.0963 103.526L37.711 108.219L32.2841 112.868L26.8109 117.47C24.9715 118.989 23.1444 120.52 21.2862 122.02C19.44 123.531 17.5734 125.022 15.7042 126.51V126.51C14.8032 127.219 13.784 126.172 14.5048 125.281V125.281C16.0207 123.431 17.5392 121.584 19.078 119.757C20.6051 117.918 22.163 116.111 23.7088 114.292L28.3908 108.879L33.1194 103.513L37.8894 98.1908C39.4752 96.4122 41.0897 94.663 42.6959 92.9055C44.3045 91.1503 45.9045 89.3863 47.5337 87.6522L52.4013 82.4295L57.311 77.25C58.949 75.5249 60.5821 73.7948 62.2419 72.0921L67.2019 66.964C68.8478 65.2471 70.53 63.5673 72.1953 61.8702L77.2021 56.7902L87.3098 46.7264V46.7264C89.4991 44.5466 93.0415 44.5453 95.2295 46.7264V46.7264L105.331 56.7966C108.661 60.1908 112.024 63.552 115.328 66.9733L120.289 72.1006C121.95 73.8024 123.577 75.5388 125.218 77.2607L130.126 82.4419L134.995 87.6631C136.625 89.3964 138.221 91.1646 139.832 92.9172C141.44 94.6725 143.051 96.4252 144.638 98.2026C146.228 99.9777 147.833 101.736 149.409 103.525L154.138 108.889L158.822 114.3C160.369 116.118 161.927 117.926 163.455 119.763C164.995 121.589 166.514 123.436 168.031 125.285V125.285Z" fill="url(#paint0_linear_5_148)"/>
<path d="M137.385 108.274C137.563 107.972 138.025 108.11 138.012 108.459V108.459C137.976 108.894 137.999 109.424 137.885 110.053C137.785 110.686 137.658 111.427 137.486 112.266C137.259 113.063 137.022 113.974 136.671 114.935C136.292 115.879 135.886 116.931 135.296 117.969C134.768 119.059 134.028 120.091 133.267 121.226C132.857 121.761 132.417 122.299 131.964 122.854C131.508 123.406 130.994 123.913 130.486 124.466C128.392 126.584 125.841 128.598 122.939 130.324C120.039 132.055 116.812 133.537 113.392 134.713C109.97 135.882 106.362 136.8 102.66 137.408C100.809 137.721 98.9358 137.965 97.0413 138.129C96.0943 138.212 95.1412 138.285 94.1809 138.33L92.7251 138.38L91.9813 138.394L91.3479 138.397C90.2607 138.406 89.3355 138.37 88.3582 138.332C87.3979 138.288 86.4445 138.218 85.4976 138.134C83.6028 137.972 81.7292 137.727 79.8776 137.418C76.1748 136.813 72.5667 135.892 69.1436 134.726C65.7225 133.552 62.4938 132.07 59.5934 130.339C56.6892 128.614 54.1387 126.596 52.0434 124.478C51.5357 123.925 51.0216 123.417 50.5656 122.865C50.1141 122.307 49.6721 121.771 49.2627 121.235C48.5014 120.1 47.763 119.065 47.2341 117.976C46.6454 116.936 46.238 115.884 45.8601 114.939C45.5106 113.977 45.2735 113.067 45.0473 112.269C44.8823 111.443 44.7584 110.711 44.659 110.08C44.5461 109.454 44.5608 108.894 44.5255 108.46V108.46C44.5077 108.096 44.9699 107.958 45.1557 108.273V108.273C45.2622 108.457 45.3811 108.662 45.5119 108.888C45.6402 109.114 45.7702 109.362 45.9547 109.611C46.2929 110.109 46.6817 110.682 47.1172 111.324C47.6216 111.918 48.1009 112.6 48.7018 113.275C49.3438 113.925 49.936 114.67 50.7279 115.334C52.2083 116.73 54.0097 118.108 56.1337 119.327C60.3454 121.808 65.7651 123.728 71.8503 124.998C74.8954 125.624 78.0925 126.122 81.3724 126.464C83.0096 126.647 84.6699 126.771 86.3299 126.876C87.1603 126.927 87.9904 126.956 88.8159 126.993C89.625 127.02 90.489 127.036 91.1913 127.028L91.8999 127.031L92.4979 127.025L93.7234 126.995C94.549 126.959 95.3793 126.934 96.2096 126.88C97.87 126.778 99.5302 126.653 101.168 126.474C104.449 126.135 107.646 125.634 110.693 125.011C116.78 123.743 122.203 121.823 126.415 119.339C126.929 119.018 127.467 118.728 127.946 118.395C128.421 118.058 128.888 117.723 129.362 117.408C130.237 116.717 131.093 116.05 131.821 115.341C132.611 114.676 133.204 113.93 133.845 113.279C134.169 112.955 134.402 112.594 134.67 112.271C134.925 111.94 135.186 111.629 135.428 111.327C135.859 110.694 136.245 110.129 136.58 109.638C136.763 109.394 136.896 109.134 137.026 108.903C137.158 108.671 137.278 108.462 137.385 108.274V108.274Z" fill="url(#paint1_linear_5_148)"/>
<defs>
<linearGradient id="paint0_linear_5_148" x1="10.0268" y1="86.8424" x2="172.512" y2="86.8424" gradientUnits="userSpaceOnUse">
<stop offset="0.107" stop-color="#E3BC5D"/>
<stop offset="0.163861" stop-color="#DBB557"/>
<stop offset="0.253315" stop-color="#C4A046"/>
<stop offset="0.363626" stop-color="#A07F2A"/>
<stop offset="0.3737" stop-color="#9C7C27"/>
<stop offset="0.456181" stop-color="#A98B39"/>
<stop offset="0.620948" stop-color="#C9B368"/>
<stop offset="0.7321" stop-color="#E1D08B"/>
<stop offset="0.865515" stop-color="#C2A65B"/>
<stop offset="1" stop-color="#A17926"/>
</linearGradient>
<linearGradient id="paint1_linear_5_148" x1="44.4778" y1="122.762" x2="138.061" y2="122.762" gradientUnits="userSpaceOnUse">
<stop offset="0.107" stop-color="#E3BC5D"/>
<stop offset="0.163861" stop-color="#DBB557"/>
<stop offset="0.253315" stop-color="#C4A046"/>
<stop offset="0.363626" stop-color="#A07F2A"/>
<stop offset="0.3737" stop-color="#9C7C27"/>
<stop offset="0.456181" stop-color="#A98B39"/>
<stop offset="0.620948" stop-color="#C9B368"/>
<stop offset="0.7321" stop-color="#E1D08B"/>
<stop offset="0.865515" stop-color="#C2A65B"/>
<stop offset="1" stop-color="#A17926"/>
</linearGradient>
</defs>
</svg>
