<svg width="57" height="57" viewBox="0 0 57 57" fill="none" xmlns="http://www.w3.org/2000/svg">
<path d="M18.525 4.75H38.475C46.075 4.75 52.25 10.925 52.25 18.525V38.475C52.25 42.1284 50.7987 45.6321 48.2154 48.2154C45.6321 50.7987 42.1284 52.25 38.475 52.25H18.525C10.925 52.25 4.75 46.075 4.75 38.475V18.525C4.75 14.8716 6.20129 11.3679 8.7846 8.7846C11.3679 6.20129 14.8716 4.75 18.525 4.75ZM18.05 9.5C15.7824 9.5 13.6077 10.4008 12.0042 12.0042C10.4008 13.6077 9.5 15.7824 9.5 18.05V38.95C9.5 43.6762 13.3237 47.5 18.05 47.5H38.95C41.2176 47.5 43.3923 46.5992 44.9958 44.9958C46.5992 43.3923 47.5 41.2176 47.5 38.95V18.05C47.5 13.3237 43.6762 9.5 38.95 9.5H18.05ZM40.9688 13.0625C41.7561 13.0625 42.5112 13.3753 43.068 13.932C43.6247 14.4888 43.9375 15.2439 43.9375 16.0312C43.9375 16.8186 43.6247 17.5737 43.068 18.1305C42.5112 18.6872 41.7561 19 40.9688 19C40.1814 19 39.4263 18.6872 38.8695 18.1305C38.3128 17.5737 38 16.8186 38 16.0312C38 15.2439 38.3128 14.4888 38.8695 13.932C39.4263 13.3753 40.1814 13.0625 40.9688 13.0625ZM28.5 16.625C31.6494 16.625 34.6699 17.8761 36.8969 20.1031C39.1239 22.3301 40.375 25.3506 40.375 28.5C40.375 31.6494 39.1239 34.6699 36.8969 36.8969C34.6699 39.1239 31.6494 40.375 28.5 40.375C25.3506 40.375 22.3301 39.1239 20.1031 36.8969C17.8761 34.6699 16.625 31.6494 16.625 28.5C16.625 25.3506 17.8761 22.3301 20.1031 20.1031C22.3301 17.8761 25.3506 16.625 28.5 16.625ZM28.5 21.375C26.6103 21.375 24.7981 22.1257 23.4619 23.4619C22.1257 24.7981 21.375 26.6103 21.375 28.5C21.375 30.3897 22.1257 32.2019 23.4619 33.5381C24.7981 34.8743 26.6103 35.625 28.5 35.625C30.3897 35.625 32.2019 34.8743 33.5381 33.5381C34.8743 32.2019 35.625 30.3897 35.625 28.5C35.625 26.6103 34.8743 24.7981 33.5381 23.4619C32.2019 22.1257 30.3897 21.375 28.5 21.375Z" fill="white"/>
</svg>
