<svg width="57" height="57" viewBox="0 0 57 57" fill="none" xmlns="http://www.w3.org/2000/svg">
<path d="M18.9169 14.7298C18.4755 14.6655 18.0254 14.7543 17.6415 14.9815H17.6083C16.7176 15.504 15.9149 16.1619 15.2309 16.9361C14.6609 17.594 14.3521 18.259 14.2714 18.9003C14.2239 19.2803 14.2571 19.665 14.3688 20.0284L14.4115 20.0521C15.0528 21.9355 15.8888 23.7476 16.91 25.4529C18.2268 27.848 19.8473 30.0632 21.7312 32.0435L21.7883 32.1243L21.8785 32.1907L21.9331 32.2549L21.9996 32.3119C23.9869 34.2015 26.2072 35.8297 28.6069 37.1569C31.35 38.6508 33.0149 39.3561 34.0147 39.6506V39.6649C34.3069 39.7551 34.5729 39.7955 34.8413 39.7955C35.6928 39.7326 36.4988 39.3864 37.1308 38.8122C37.9026 38.1282 38.5558 37.3231 39.064 36.4278V36.4111C39.5414 35.5086 39.3799 34.6584 38.6911 34.0813C37.3077 32.8725 35.8117 31.7988 34.2238 30.875C33.1598 30.2979 32.0791 30.647 31.6421 31.2312L30.7088 32.4092C30.229 32.9935 29.3598 32.9127 29.3598 32.9127L29.336 32.927C22.8499 31.2716 21.1185 24.7048 21.1185 24.7048C21.1185 24.7048 21.0378 23.8117 21.6386 23.3557L22.8071 22.4152C23.3676 21.9592 23.7571 20.881 23.1563 19.817C22.2386 18.2276 21.167 16.7321 19.9571 15.352C19.6932 15.0272 19.3232 14.806 18.9121 14.7274L18.9169 14.7298ZM29.8775 11.875C29.5626 11.875 29.2605 12.0001 29.0378 12.2228C28.8151 12.4455 28.69 12.7476 28.69 13.0625C28.69 13.3774 28.8151 13.6795 29.0378 13.9022C29.2605 14.1249 29.5626 14.25 29.8775 14.25C32.8795 14.25 35.3733 15.2309 37.3469 17.1119C38.361 18.1402 39.1519 19.3586 39.6696 20.6934C40.1897 22.0305 40.4273 23.4579 40.3655 24.8876C40.3523 25.2026 40.4647 25.5099 40.678 25.7419C40.8914 25.974 41.1882 26.1118 41.5031 26.125C41.8181 26.1382 42.1254 26.0258 42.3574 25.8125C42.5895 25.5991 42.7273 25.3023 42.7405 24.9874C42.8142 23.2287 42.5222 21.4738 41.8831 19.8336C41.2413 18.1857 40.268 16.687 39.0236 15.4304L38.9999 15.4066C36.5512 13.0672 33.4543 11.875 29.8775 11.875Z" fill="white"/>
<path d="M29.7944 15.7795C29.4794 15.7795 29.1774 15.9046 28.9547 16.1273C28.732 16.35 28.6069 16.6521 28.6069 16.967C28.6069 17.2819 28.732 17.584 28.9547 17.8067C29.1774 18.0294 29.4794 18.1545 29.7944 18.1545H29.8347C32.0007 18.3089 33.5777 19.0309 34.6821 20.216C35.815 21.4368 36.4016 22.9544 36.3565 24.8306C36.3493 25.1456 36.4674 25.4505 36.685 25.6783C36.9026 25.9061 37.2017 26.0382 37.5167 26.0454C37.8316 26.0527 38.1366 25.9345 38.3644 25.7169C38.5922 25.4994 38.7243 25.2002 38.7315 24.8853C38.7885 22.4224 37.9952 20.2968 36.423 18.601V18.5963C34.8151 16.872 32.6087 15.96 29.9535 15.7819L29.9131 15.7771L29.7944 15.7795Z" fill="white"/>
<path d="M29.7492 19.7576C29.5903 19.7436 29.4302 19.7617 29.2785 19.811C29.1267 19.8602 28.9864 19.9395 28.866 20.0441C28.7456 20.1488 28.6475 20.2766 28.5775 20.42C28.5076 20.5634 28.4673 20.7194 28.459 20.8787C28.4507 21.0381 28.4746 21.1974 28.5292 21.3473C28.5839 21.4972 28.6682 21.6345 28.7771 21.7511C28.886 21.8677 29.0172 21.9611 29.163 22.0259C29.3089 22.0906 29.4662 22.1253 29.6257 22.1279C30.6185 22.1801 31.2526 22.4794 31.6516 22.8807C32.053 23.2845 32.3522 23.9329 32.4069 24.947C32.4098 25.1064 32.4448 25.2635 32.5098 25.409C32.5748 25.5546 32.6684 25.6855 32.7851 25.7941C32.9018 25.9027 33.0391 25.9867 33.1889 26.0411C33.3387 26.0955 33.498 26.1192 33.6571 26.1107C33.8163 26.1023 33.9721 26.0619 34.1154 25.9919C34.2586 25.922 34.3862 25.8239 34.4907 25.7036C34.5953 25.5832 34.6745 25.4431 34.7237 25.2915C34.7729 25.1399 34.791 24.9799 34.7771 24.8211C34.7011 23.3961 34.2546 22.1374 33.3402 21.2111C32.4211 20.2849 31.1695 19.8336 29.7492 19.7576Z" fill="white"/>
<path fill-rule="evenodd" clip-rule="evenodd" d="M16.7841 5.66199C24.3415 3.97266 32.1787 3.97266 39.7361 5.66199L40.5413 5.84011C42.7505 6.33399 44.7795 7.43071 46.4029 9.00841C48.0263 10.5861 49.1805 12.583 49.7373 14.7772C51.6556 22.3366 51.6556 30.2554 49.7373 37.8147C49.1805 40.009 48.0263 42.0059 46.4029 43.5836C44.7795 45.1613 42.7505 46.258 40.5413 46.7519L39.7338 46.93C35.0004 47.9885 30.1435 48.3873 25.3009 48.1151L19 53.7534C18.7625 53.966 18.4722 54.1111 18.1595 54.1733C17.8467 54.2355 17.5231 54.2127 17.2222 54.1071C16.9213 54.0016 16.6543 53.8172 16.449 53.5732C16.2437 53.3293 16.1076 53.0347 16.055 52.7202L15.0124 46.493C13.0131 45.8709 11.2067 44.7464 9.76593 43.2271C8.32516 41.7077 7.29813 39.8442 6.783 37.8147C4.8646 30.2554 4.8646 22.3366 6.783 14.7772C7.33975 12.583 8.49394 10.5861 10.1173 9.00841C11.7407 7.43071 13.7698 6.33399 15.979 5.84011L16.7841 5.66199ZM38.9595 9.13661C31.9135 7.56152 24.6067 7.56152 17.5607 9.13661L16.7532 9.31711C15.1875 9.66779 13.7495 10.4456 12.5991 11.5642C11.4486 12.6827 10.6308 14.0983 10.2362 15.6536C8.46382 22.6378 8.46382 29.9541 10.2362 36.9384C10.6309 38.494 11.4492 39.9097 12.6001 41.0283C13.7509 42.1469 15.1894 42.9246 16.7556 43.2749L16.9694 43.3224C17.3152 43.3997 17.63 43.5784 17.8737 43.8356C18.1174 44.0928 18.2788 44.4169 18.3374 44.7664L19.0356 48.9416L23.4816 44.9635C23.6592 44.8042 23.8669 44.6821 24.0925 44.6046C24.3181 44.5271 24.557 44.4957 24.795 44.5122C29.5428 44.849 34.3143 44.493 38.9595 43.4554L39.7646 43.2749C41.3309 42.9246 42.7693 42.1469 43.9202 41.0283C45.0711 39.9097 45.8893 38.494 46.284 36.9384C48.0558 29.9559 48.0558 22.6385 46.284 15.6536C45.8893 14.098 45.0711 12.6822 43.9202 11.5636C42.7693 10.445 41.3309 9.6674 39.7646 9.31711L38.9595 9.13661Z" fill="white"/>
</svg>
