<svg width="57" height="57" viewBox="0 0 57 57" fill="none" xmlns="http://www.w3.org/2000/svg">
<path d="M45.2437 11.6612C43.0664 9.46181 40.4728 7.71795 37.6144 6.53136C34.756 5.34477 31.6899 4.73921 28.595 4.74999C15.6275 4.74999 5.05875 15.3187 5.05875 28.2862C5.05875 32.4425 6.15125 36.48 8.19375 40.0425L4.86875 52.25L17.3375 48.9725C20.7812 50.8487 24.6525 51.8462 28.595 51.8462C41.5625 51.8462 52.1313 41.2775 52.1313 28.31C52.1313 22.0162 49.685 16.1025 45.2437 11.6612ZM28.595 47.8562C25.08 47.8562 21.6362 46.9062 18.62 45.125L17.9075 44.6975L10.4975 46.645L12.4687 39.425L11.9938 38.6887C10.0409 35.5703 9.00396 31.9657 9.00125 28.2862C9.00125 17.5037 17.7887 8.71624 28.5712 8.71624C33.7962 8.71624 38.7125 10.7587 42.3938 14.4637C44.2165 16.2782 45.661 18.4363 46.6436 20.8131C47.6261 23.1899 48.1271 25.7381 48.1175 28.31C48.165 39.0925 39.3775 47.8562 28.595 47.8562ZM39.33 33.2262C38.7362 32.9412 35.8387 31.5162 35.3162 31.3025C34.77 31.1125 34.39 31.0175 33.9863 31.5875C33.5825 32.1812 32.4662 33.5112 32.1337 33.8912C31.8012 34.295 31.445 34.3425 30.8512 34.0337C30.2575 33.7487 28.3575 33.1075 26.125 31.1125C24.3675 29.545 23.2037 27.6212 22.8475 27.0275C22.515 26.4337 22.8 26.125 23.1087 25.8162C23.37 25.555 23.7025 25.1275 23.9875 24.795C24.2725 24.4625 24.3913 24.2012 24.5813 23.8212C24.7713 23.4175 24.6762 23.085 24.5337 22.8C24.3912 22.515 23.2037 19.6175 22.7287 18.43C22.2537 17.29 21.755 17.4325 21.3987 17.4087H20.2587C19.855 17.4087 19.2375 17.5512 18.6912 18.145C18.1687 18.7387 16.6487 20.1637 16.6487 23.0612C16.6487 25.9587 18.7625 28.7612 19.0475 29.1412C19.3325 29.545 23.2037 35.4825 29.0937 38.0237C30.495 38.6412 31.5875 38.9975 32.4425 39.2587C33.8437 39.71 35.1262 39.6387 36.1475 39.4962C37.2875 39.33 39.6387 38.0712 40.1137 36.6937C40.6125 35.3162 40.6125 34.1525 40.4463 33.8912C40.28 33.63 39.9237 33.5112 39.33 33.2262Z" fill="white"/>
</svg>
